<?xml version="1.0" standalone="no"?>
<!DOCTYPE svg PUBLIC "-//W3C//DTD SVG 20010904//EN"
 "http://www.w3.org/TR/2001/REC-SVG-20010904/DTD/svg10.dtd">
<svg version="1.0" xmlns="http://www.w3.org/2000/svg"
 width="200.000000pt" height="200.000000pt" viewBox="0 0 200.000000 200.000000"
 preserveAspectRatio="xMidYMid meet">
<metadata>
Created by potrace 1.11, written by Peter Selinger 2001-2013
</metadata>
<g transform="translate(0.000000,200.000000) scale(0.100000,-0.100000)"
fill="#000000" stroke="none">
<path d="M0 1000 l0 -1000 1000 0 1000 0 0 1000 0 1000 -1000 0 -1000 0 0
-1000z m1285 664 c103 -25 189 -56 206 -73 21 -21 63 -130 80 -206 8 -36 13
-132 13 -240 1 -150 -2 -188 -17 -226 l-18 -46 -82 -6 c-45 -4 -125 -7 -177
-8 -87 0 -92 -2 -60 -12 59 -20 74 -32 65 -53 -4 -11 -7 -24 -6 -30 2 -14 -45
-22 -182 -30 l-109 -7 4 24 c3 24 4 24 93 21 50 -2 101 1 115 6 l25 10 -25 11
c-14 6 -63 15 -110 19 l-85 7 3 35 c1 18 4 36 6 38 3 2 46 -1 98 -8 58 -7 145
-8 230 -4 126 6 136 8 128 24 -7 13 -29 19 -87 24 -93 9 -307 44 -340 57 -18
7 -23 16 -23 44 0 30 3 35 18 31 9 -3 51 -8 92 -11 93 -8 304 -33 348 -41 71
-14 17 42 -76 77 -66 24 -164 28 -287 9 -42 -6 -79 -9 -82 -7 -2 3 -1 26 2 51
l7 46 52 1 c38 0 46 3 31 9 -11 5 -32 9 -47 9 -18 1 -28 6 -28 16 0 13 -10 17
-73 30 -10 2 -21 -3 -24 -11 -3 -8 -14 -12 -27 -10 -110 23 -126 29 -124 45 2
10 -3 15 -14 15 -22 -2 -22 0 2 64 34 90 24 131 -14 57 l-16 -30 -1 65 c-4
122 1 133 60 150 31 9 38 8 50 -10 14 -21 61 -28 61 -10 0 6 -12 16 -27 23
-32 14 -47 55 -16 42 31 -12 166 -18 203 -8 21 5 39 18 45 31 11 24 22 24 140
-4z m-728 -156 c-7 -21 20 -64 59 -96 25 -21 35 -36 30 -47 -3 -9 -1 -25 4
-35 12 -23 -11 -40 -43 -32 -12 3 -18 1 -14 -5 13 -20 150 -65 249 -81 90 -15
103 -19 103 -37 0 -15 -9 -21 -38 -26 -51 -8 -54 -15 -18 -34 24 -12 31 -22
31 -46 0 -30 -1 -31 -37 -26 -21 3 -75 11 -120 17 -45 5 -94 15 -108 20 -15 6
-36 10 -48 10 -12 0 -28 4 -36 9 -13 8 -13 12 -1 26 12 15 10 20 -18 42 -20
15 -32 33 -32 48 0 13 -4 27 -10 30 -5 3 -10 31 -10 60 0 54 0 54 25 45 18 -7
25 -6 25 2 0 6 -11 26 -25 44 -26 34 -32 54 -16 54 5 0 12 12 16 27 3 15 12
31 18 35 17 11 19 10 14 -4z m108 -469 c28 -12 40 -14 105 -21 15 -2 24 -8 22
-17 -2 -10 5 -12 26 -8 27 5 30 3 36 -25 4 -21 2 -35 -6 -40 -13 -9 -87 -3
-148 12 -19 5 -67 14 -107 20 l-71 12 10 31 c5 18 12 38 14 46 5 16 71 11 119
-10z m34 -125 c52 -8 112 -14 134 -14 31 0 38 -3 33 -15 -3 -8 -1 -15 4 -15 6
0 10 -10 10 -22 0 -21 -2 -21 -107 -15 -58 4 -131 7 -162 7 -69 0 -95 13 -68
32 15 11 16 18 7 42 -10 28 -10 29 22 22 18 -4 75 -14 127 -22z m165 -146 c8
-12 13 -25 10 -30 -6 -9 -178 -11 -212 -1 -34 8 -8 22 43 23 22 1 56 7 75 14
51 20 67 19 84 -6z m561 -155 c5 -26 3 -33 -8 -33 -8 0 -22 -11 -31 -24 l-15
-24 32 9 c17 5 33 9 34 9 2 0 3 -12 3 -28 0 -15 4 -41 9 -59 7 -24 6 -35 -5
-44 -8 -7 -13 -18 -10 -24 5 -15 -44 -39 -126 -61 -80 -22 -201 -43 -210 -38
-4 3 -16 30 -28 62 -17 44 -21 71 -17 120 3 34 1 62 -3 62 -4 0 -26 -36 -49
-81 -30 -59 -41 -93 -41 -125 0 -43 -1 -44 -33 -44 -18 0 -37 4 -43 10 -15 15
-184 18 -184 3 0 -7 -4 -13 -10 -13 -5 0 -10 9 -10 20 0 14 7 20 23 21 18 1
19 2 3 6 -16 4 -17 11 -11 51 4 26 9 81 10 122 l3 75 61 3 62 3 14 -36 c13
-30 20 -35 48 -35 17 0 43 3 56 7 20 5 22 11 18 38 -4 27 -1 35 17 45 27 14
201 17 316 6 l75 -7 13 33 c14 37 24 29 37 -29z m-750 -85 c-8 -49 -10 -52
-23 -44 -6 4 -6 20 0 46 14 54 32 52 23 -2z"/>
<path d="M1262 1641 c2 -7 7 -12 11 -12 12 1 9 15 -3 20 -7 2 -11 -2 -8 -8z"/>
<path d="M1180 1508 c0 -65 4 -118 9 -118 5 0 16 19 25 41 18 45 16 68 -14
145 l-19 49 -1 -117z"/>
<path d="M782 1529 c2 -6 8 -10 13 -10 5 0 11 4 13 10 2 6 -4 11 -13 11 -9 0
-15 -5 -13 -11z"/>
<path d="M1283 1445 c4 -26 7 -59 7 -73 0 -22 2 -23 17 -11 15 13 16 10 9 -31
-4 -25 -10 -59 -13 -76 -3 -19 -14 -36 -26 -42 -24 -11 -26 -12 138 3 94 9
134 24 64 25 -26 0 -60 3 -77 6 -28 6 -31 10 -30 42 1 21 -5 39 -14 46 -8 6
-18 24 -22 40 -6 23 -10 26 -16 16 -6 -10 -10 4 -12 40 -2 35 -8 55 -17 58
-11 4 -13 -5 -8 -43z"/>
<path d="M1095 1162 c14 -14 63 -19 67 -7 2 6 -15 11 -37 13 -26 2 -37 0 -30
-6z"/>
<path d="M1158 853 c7 -3 16 -2 19 1 4 3 -2 6 -13 5 -11 0 -14 -3 -6 -6z"/>
<path d="M1333 573 c9 -2 23 -2 30 0 6 3 -1 5 -18 5 -16 0 -22 -2 -12 -5z"/>
<path d="M776 517 c16 -18 47 -63 68 -100 31 -52 44 -67 63 -67 30 0 31 39 2
87 -27 43 -114 113 -141 113 -18 0 -18 -3 8 -33z"/>
<path d="M1240 530 c0 -5 5 -10 10 -10 6 0 10 5 10 10 0 6 -4 10 -10 10 -5 0
-10 -4 -10 -10z"/>
<path d="M1303 474 c-16 -12 -51 -16 -132 -17 -60 -1 -107 -5 -105 -9 14 -22
91 -29 211 -19 68 6 131 11 139 11 27 0 14 15 -29 33 -50 20 -56 20 -84 1z"/>
</g>
</svg>
